HIERARCHY
ROOT SpineBase
{
  OFFSET 0.000000 0.000000 0.000000
  CHANNELS 6 Xposition Yposition Zposition Zrotation Xrotation Yrotation
  JOINT SpineMid
  {
    OFFSET -0.000000 31.956081 0.000000
    CHANNELS 3 Zrotation Xrotation Yrotation
    JOINT SpineShoulder
    {
      OFFSET 0.158309 23.915451 -0.732778
      CHANNELS 3 Zrotation Xrotation Yrotation
      JOINT Neck
      {
        OFFSET 0.051933 7.919433 -0.531472
        CHANNELS 3 Zrotation Xrotation Yrotation
        JOINT Head
        {
          OFFSET 3.281316 12.925388 4.756960
          CHANNELS 3 Zrotation Xrotation Yrotation
          End Site
          {
            OFFSET 0 0 0
          }
        }
      }
      JOINT ShoulderLeft
      {
        OFFSET -9.415085 -3.134923 -11.878477
        CHANNELS 3 Zrotation Xrotation Yrotation
        JOINT ElbowLeft
        {
          OFFSET -5.551213 -22.269110 -7.544596
          CHANNELS 3 Zrotation Xrotation Yrotation
          JOINT WristLeft
          {
            OFFSET 24.280342 -10.197768 0.959650
            CHANNELS 3 Zrotation Xrotation Yrotation
            JOINT HandLeft
            {
              OFFSET 5.162312 0.518832 1.306321
              CHANNELS 3 Zrotation Xrotation Yrotation
              JOINT HandTipLeft
              {
                OFFSET 7.076461 -0.034787 2.297307
                CHANNELS 3 Zrotation Xrotation Yrotation
                End Site
                {
                  OFFSET 0 0 0
                }
              }
              JOINT ThumbLeft
              {
                OFFSET 1.316956 -0.877796 -4.805077
                CHANNELS 3 Zrotation Xrotation Yrotation
                End Site
                {
                  OFFSET 0 0 0
                }
              }
            }
          }
        }
      }
      JOINT ShoulderRight
      {
        OFFSET 12.163964 -3.827507 11.953890
        CHANNELS 3 Zrotation Xrotation Yrotation
        JOINT ElbowRight
        {
          OFFSET 4.351649 -20.880994 7.366841
          CHANNELS 3 Zrotation Xrotation Yrotation
          JOINT WristRight
          {
            OFFSET 2.916198 -7.683934 -19.326098
            CHANNELS 3 Zrotation Xrotation Yrotation
            JOINT HandRight
            {
              OFFSET -0.957414 -1.491027 -11.152657
              CHANNELS 3 Zrotation Xrotation Yrotation
              JOINT HandTipRight
              {
                OFFSET 0.890800 -2.674136 -6.580903
                CHANNELS 3 Zrotation Xrotation Yrotation
                End Site
                {
                  OFFSET 0 0 0
                }
              }
              JOINT ThumbRight
              {
                OFFSET -4.747617 3.535259 4.546297
                CHANNELS 3 Zrotation Xrotation Yrotation
                End Site
                {
                  OFFSET 0 0 0
                }
              }
            }
          }
        }
      }
    }
  }
  JOINT HipLeft
  {
    OFFSET -4.541335 1.993481 -8.428774
    CHANNELS 3 Zrotation Xrotation Yrotation
    JOINT KneeLeft
    {
      OFFSET -6.341135 -34.367097 -1.009766
      CHANNELS 3 Zrotation Xrotation Yrotation
      JOINT AnkleLeft
      {
        OFFSET -6.411974 -38.745904 6.426059
        CHANNELS 3 Zrotation Xrotation Yrotation
        JOINT FootLeft
        {
          OFFSET 1.869546 -8.018453 -4.993885
          CHANNELS 3 Zrotation Xrotation Yrotation
          End Site
          {
            OFFSET 0 0 0
          }
        }
      }
    }
  }
  JOINT HipRight
  {
    OFFSET 5.340754 -0.081028 1.272736
    CHANNELS 3 Zrotation Xrotation Yrotation
    JOINT KneeRight
    {
      OFFSET -0.821092 -37.620386 4.106626
      CHANNELS 3 Zrotation Xrotation Yrotation
      JOINT AnkleRight
      {
        OFFSET -5.436407 -37.161147 10.011908
        CHANNELS 3 Zrotation Xrotation Yrotation
        JOINT FootRight
        {
          OFFSET 2.469561 -8.011579 -4.237576
          CHANNELS 3 Zrotation Xrotation Yrotation
          End Site
          {
            OFFSET 0 0 0
          }
        }
      }
    }
  }
}
MOTION
Frames: 11
Frame Time: 0.033333
-32.097216 83.567528 343.553362 2.892645 3.996884 -50.510952 0.050391 0.050670 50.476988 -0.305999 -0.332670 0.087215 -11.271223 -10.364540 3.575613 0.000000 0.000000 0.000000 17.844124 8.607257 -11.331249 12.657879 -4.416785 22.470241 -7.270801 -9.061953 1.844383 -10.971428 3.592739 0.369203 0.000000 0.000000 0.000000 0.000000 0.000000 0.000000 1.477922 44.027522 11.950251 -8.637047 -3.318164 -1.722202 -5.882844 14.668017 0.325375 -20.765512 -24.932711 16.791466 0.000000 0.000000 0.000000 0.000000 0.000000 0.000000 -0.893704 -6.326578 50.210787 -1.240690 1.264391 -0.864330 -0.969899 3.781714 5.255230 0.000000 0.000000 0.000000 -3.140952 -4.068082 49.793559 -2.551640 -2.813788 -1.313002 4.675619 0.615671 2.003360 0.000000 0.000000 0.000000
-32.051671 83.609013 343.569549 2.892931 4.007494 -50.596518 0.052729 0.048012 50.562297 -0.308742 -0.336037 0.086997 -11.425595 -10.163113 3.574341 0.000000 0.000000 0.000000 17.977811 8.768183 -11.451510 12.442239 -4.697566 22.494100 -7.722080 -8.810115 1.966807 -10.561607 3.679653 1.598333 0.000000 0.000000 0.000000 0.000000 0.000000 0.000000 1.128169 43.482138 11.806964 -2.953992 -4.646396 -7.034250 -11.216154 4.401733 4.231435 -24.696198 -18.110306 28.124537 0.000000 0.000000 0.000000 0.000000 0.000000 0.000000 -0.887591 -6.403087 50.302519 -1.105746 1.345030 -0.864849 -1.340260 4.130945 5.530508 0.000000 0.000000 0.000000 -3.138221 -4.077090 49.877232 -2.559976 -2.793672 -1.320369 5.114021 -0.007655 1.615675 0.000000 0.000000 0.000000
-32.007392 83.645145 343.581657 2.886168 4.017723 -50.683760 0.054618 0.045451 50.649298 -0.311295 -0.338598 0.086487 -11.612507 -9.877289 3.567979 0.000000 0.000000 0.000000 17.993541 8.900450 -11.506670 12.510939 -4.951221 22.407160 -8.500492 -8.460709 1.972921 -12.112977 4.294998 1.458534 0.000000 0.000000 0.000000 0.000000 0.000000 0.000000 0.795442 42.982965 11.674726 3.494000 -4.355407 -12.370846 -12.700122 3.819649 1.404356 -30.072075 -26.207870 38.032933 0.000000 0.000000 0.000000 0.000000 0.000000 0.000000 -0.856866 -6.487578 50.402583 -1.024068 1.440134 -0.875687 -1.640094 4.312186 5.759438 0.000000 0.000000 0.000000 -3.140237 -4.089859 49.960882 -2.524347 -2.766030 -1.316799 6.061483 -0.088018 1.101436 0.000000 0.000000 0.000000
-31.963610 83.674779 343.592539 2.860548 4.042341 -50.738676 0.050044 0.045238 50.703254 -0.311841 -0.340139 0.085265 -11.719542 -9.659721 3.554202 0.000000 0.000000 0.000000 18.003594 8.992058 -11.534257 12.542808 -5.334644 22.129573 -9.565695 -7.917410 1.960786 -10.551273 3.694182 1.232157 0.000000 0.000000 0.000000 0.000000 0.000000 0.000000 0.535927 42.579209 11.576455 9.946452 -5.126796 -18.065696 -16.800766 2.829482 3.158104 -27.620439 -14.343952 39.711255 0.000000 0.000000 0.000000 0.000000 0.000000 0.000000 -0.802711 -6.563591 50.472081 -0.936646 1.527531 -0.883973 -1.763702 4.317681 5.822133 0.000000 0.000000 0.000000 -3.109272 -4.097477 50.015572 -2.505070 -2.764195 -1.313068 6.315630 -0.519910 0.842527 0.000000 0.000000 0.000000
-31.927122 83.699268 343.606772 2.820366 4.071619 -50.802675 0.046599 0.047402 50.766379 -0.310589 -0.341815 0.083748 -11.775529 -9.510085 3.542451 0.000000 0.000000 0.000000 17.918446 9.056851 -11.505409 12.694215 -5.834331 21.618408 -10.742346 -7.259606 1.782981 -9.584929 3.301373 1.356801 0.000000 0.000000 0.000000 0.000000 0.000000 0.000000 0.386258 42.361914 11.532457 15.256934 -6.686620 -23.011285 -19.621703 2.923438 3.273727 -12.340150 6.641916 27.155912 0.000000 0.000000 0.000000 0.000000 0.000000 0.000000 -0.729994 -6.621681 50.551725 -0.866681 1.641801 -0.896857 -1.790104 5.024986 6.005694 0.000000 0.000000 0.000000 -3.074765 -4.088824 50.080125 -2.486083 -2.823092 -1.304868 6.455904 -1.233397 0.539681 0.000000 0.000000 0.000000
-31.900948 83.716672 343.617413 2.778557 4.102165 -50.859481 0.044519 0.049058 50.822378 -0.308860 -0.343679 0.082241 -11.856875 -9.402526 3.545133 0.000000 0.000000 0.000000 17.958889 9.048018 -11.499909 13.040991 -6.204624 21.134977 -12.252500 -6.547858 1.887732 -10.120981 3.443127 0.596253 0.000000 0.000000 0.000000 0.000000 0.000000 0.000000 0.355181 42.408376 11.564050 18.509650 -8.144250 -26.164760 -22.817189 0.336030 6.476801 -3.568984 4.491271 18.825173 0.000000 0.000000 0.000000 0.000000 0.000000 0.000000 -0.641390 -6.668230 50.626212 -0.833886 1.732102 -0.909216 -1.947433 6.199552 6.389568 0.000000 0.000000 0.000000 -3.019354 -4.058336 50.143102 -2.513102 -2.870059 -1.307424 6.310935 -1.210656 0.611040 0.000000 0.000000 0.000000
-31.884314 83.727096 343.618216 2.736665 4.129804 -50.887454 0.047846 0.050596 50.850005 -0.305446 -0.347293 0.081110 -11.943254 -9.376483 3.565473 0.000000 0.000000 0.000000 17.987224 9.028573 -11.487007 13.489188 -6.684592 20.471315 -14.038775 -5.680559 2.240582 -10.374917 3.415273 -1.478624 0.000000 0.000000 0.000000 0.000000 0.000000 0.000000 0.279303 42.347917 11.560738 19.210681 -8.386707 -26.698184 -23.905149 -1.127966 8.299823 -3.794424 -9.282304 18.713488 0.000000 0.000000 0.000000 0.000000 0.000000 0.000000 -0.559486 -6.686895 50.668366 -0.860807 1.791645 -0.922963 -1.800132 7.091055 6.534563 0.000000 0.000000 0.000000 -2.953827 -4.018992 50.180262 -2.569768 -2.891461 -1.318781 5.652383 -1.049681 1.009585 0.000000 0.000000 0.000000
-31.871389 83.730659 343.619470 2.700077 4.155296 -50.884950 0.055744 0.050567 50.847457 -0.301632 -0.350440 0.080302 -12.084856 -9.351083 3.599188 0.000000 0.000000 0.000000 17.945228 8.928154 -11.415154 12.324552 -7.251163 19.817680 -12.418663 -5.729737 1.685398 -9.091589 2.923177 1.118557 0.000000 0.000000 0.000000 0.000000 0.000000 0.000000 0.232257 42.489035 11.614215 17.008976 -5.944180 -23.903369 -21.838146 -4.714057 7.881330 -7.597642 -21.168063 20.214155 0.000000 0.000000 0.000000 0.000000 0.000000 0.000000 -0.516765 -6.677471 50.668939 -0.890439 1.772398 -0.925284 -1.697297 7.780487 6.645779 0.000000 0.000000 0.000000 -2.895731 -3.981730 50.186238 -2.637834 -2.915431 -1.333692 4.896097 -0.839117 1.484812 0.000000 0.000000 0.000000
-31.852124 83.731944 343.622423 2.682878 4.163241 -50.885985 0.066510 0.050708 50.849060 -0.299770 -0.353020 0.080166 -12.408010 -9.196979 3.655145 0.000000 0.000000 0.000000 17.838268 8.741596 -11.290308 11.538858 -7.861634 18.819452 -10.516306 -5.613304 2.717599 -10.741720 3.392955 -0.183061 0.000000 0.000000 0.000000 0.000000 0.000000 0.000000 0.157842 42.417421 11.594515 16.966951 -6.151690 -23.838408 -22.254550 -5.825204 9.270374 -4.804735 -17.649425 16.302718 0.000000 0.000000 0.000000 0.000000 0.000000 0.000000 -0.517404 -6.678144 50.668424 -0.897093 1.762706 -0.928156 -1.496644 8.153817 6.618830 0.000000 0.000000 0.000000 -2.879207 -3.955503 50.190803 -2.699313 -2.945631 -1.349853 4.162064 -1.454038 1.712441 0.000000 0.000000 0.000000
-31.827865 83.722572 343.629196 2.664181 4.179842 -50.850563 0.073436 0.052258 50.813757 -0.298266 -0.353948 0.079802 -12.729659 -9.122734 3.721137 0.000000 0.000000 0.000000 17.633370 8.477541 -11.092966 10.357290 -8.274717 17.952195 -8.447612 -5.555204 3.983710 -8.599936 2.864531 1.503510 0.000000 0.000000 0.000000 0.000000 0.000000 0.000000 0.008939 42.237375 11.548618 16.590795 -7.414735 -23.751423 -23.442480 -2.836709 10.986588 -0.967806 -16.502120 11.555210 0.000000 0.000000 0.000000 0.000000 0.000000 0.000000 -0.532091 -6.687309 50.627952 -0.842276 1.713509 -0.918857 -1.307544 8.577631 6.561291 0.000000 0.000000 0.000000 -2.862205 -3.947980 50.156240 -2.755077 -2.970869 -1.366552 4.006288 -0.324406 2.169583 0.000000 0.000000 0.000000
-31.801954 83.706373 343.637690 2.650116 4.194354 -50.794298 0.083499 0.053439 50.757843 -0.297189 -0.355163 0.079664 -13.023829 -8.962532 3.765872 0.000000 0.000000 0.000000 17.424460 8.200544 -10.892547 8.860019 -8.623879 17.143728 -5.497255 -5.620162 6.043747 -6.962701 2.488902 1.666763 0.000000 0.000000 0.000000 0.000000 0.000000 0.000000 -0.113734 41.876466 11.443991 15.931634 -9.413832 -23.759068 -25.099092 2.018249 13.185283 5.829761 -8.926469 5.533694 0.000000 0.000000 0.000000 0.000000 0.000000 0.000000 -0.586183 -6.680751 50.556810 -0.789260 1.593970 -0.901155 -1.152087 8.554660 6.419266 0.000000 0.000000 0.000000 -2.863210 -3.957967 50.096641 -2.783683 -2.955051 -1.382283 3.528033 0.556764 2.739085 0.000000 0.000000 0.000000
